<svg width="1772" height="267" viewBox="0 0 1772 267" fill="none" xmlns="http://www.w3.org/2000/svg">
<rect x="3.5" y="13.5" width="1765" height="240" rx="36.5" fill="url(#paint0_linear_50_79)" stroke="url(#paint1_linear_50_79)" stroke-width="7"/>
<g filter="url(#filter0_i_50_79)">
<path d="M311.642 64.28V196H291.35V64.28H311.642ZM339.708 84.928C336.029 84.928 332.944 83.682 330.452 81.19C327.96 78.698 326.714 75.6127 326.714 71.934C326.714 68.2553 327.96 65.17 330.452 62.678C332.944 60.186 336.029 58.94 339.708 58.94C343.268 58.94 346.294 60.186 348.786 62.678C351.278 65.17 352.524 68.2553 352.524 71.934C352.524 75.6127 351.278 78.698 348.786 81.19C346.294 83.682 343.268 84.928 339.708 84.928ZM349.676 97.922V196H329.384V97.922H349.676ZM387.709 64.28V196H367.417V64.28H387.709ZM425.743 112.518C429.184 107.771 433.871 103.915 439.805 100.948C445.857 97.8627 452.561 96.32 459.919 96.32C468.581 96.32 476.413 98.3967 483.415 102.55C490.416 106.703 495.934 112.637 499.969 120.35C504.003 127.945 506.021 136.667 506.021 146.516C506.021 156.365 504.003 165.206 499.969 173.038C495.934 180.751 490.357 186.803 483.237 191.194C476.235 195.466 468.463 197.602 459.919 197.602C452.324 197.602 445.56 196.119 439.627 193.152C433.812 190.185 429.184 186.388 425.743 181.76V196H405.451V64.28H425.743V112.518ZM485.373 146.516C485.373 139.752 483.949 133.937 481.101 129.072C478.371 124.088 474.693 120.35 470.065 117.858C465.555 115.247 460.69 113.942 455.469 113.942C450.366 113.942 445.501 115.247 440.873 117.858C436.363 120.469 432.685 124.266 429.837 129.25C427.107 134.234 425.743 140.108 425.743 146.872C425.743 153.636 427.107 159.569 429.837 164.672C432.685 169.656 436.363 173.453 440.873 176.064C445.501 178.675 450.366 179.98 455.469 179.98C460.69 179.98 465.555 178.675 470.065 176.064C474.693 173.335 478.371 169.419 481.101 164.316C483.949 159.213 485.373 153.28 485.373 146.516ZM537.479 112.162C540.446 107.178 544.362 103.321 549.227 100.592C554.211 97.744 560.085 96.32 566.849 96.32V117.324H561.687C553.737 117.324 547.685 119.341 543.531 123.376C539.497 127.411 537.479 134.412 537.479 144.38V196H517.187V97.922H537.479V112.162ZM619.144 197.602C609.888 197.602 601.522 195.525 594.046 191.372C586.57 187.1 580.696 181.167 576.424 173.572C572.152 165.859 570.016 156.959 570.016 146.872C570.016 136.904 572.211 128.063 576.602 120.35C580.993 112.637 586.985 106.703 594.58 102.55C602.175 98.3967 610.659 96.32 620.034 96.32C629.409 96.32 637.893 98.3967 645.488 102.55C653.083 106.703 659.075 112.637 663.466 120.35C667.857 128.063 670.052 136.904 670.052 146.872C670.052 156.84 667.797 165.681 663.288 173.394C658.779 181.107 652.608 187.1 644.776 191.372C637.063 195.525 628.519 197.602 619.144 197.602ZM619.144 179.98C624.365 179.98 629.231 178.734 633.74 176.242C638.368 173.75 642.106 170.012 644.954 165.028C647.802 160.044 649.226 153.992 649.226 146.872C649.226 139.752 647.861 133.759 645.132 128.894C642.403 123.91 638.783 120.172 634.274 117.68C629.765 115.188 624.899 113.942 619.678 113.942C614.457 113.942 609.591 115.188 605.082 117.68C600.691 120.172 597.191 123.91 594.58 128.894C591.969 133.759 590.664 139.752 590.664 146.872C590.664 157.433 593.334 165.621 598.674 171.436C604.133 177.132 610.956 179.98 619.144 179.98ZM772.526 81.012C786.054 81.012 797.742 83.504 807.592 88.488C817.441 93.472 824.917 100.473 830.02 109.492C835.241 118.392 837.852 128.775 837.852 140.642C837.852 150.135 836.19 159.213 832.868 167.876C829.664 176.539 824.976 183.599 818.806 189.058C812.754 194.517 805.574 197.246 797.268 197.246C791.216 197.246 786.469 195.941 783.028 193.33C779.586 190.601 777.45 186.803 776.62 181.938C772.941 186.685 768.313 190.423 762.736 193.152C757.158 195.881 751.344 197.246 745.292 197.246C736.154 197.246 728.975 194.517 723.754 189.058C718.651 183.481 716.1 175.945 716.1 166.452C716.1 157.433 717.939 149.008 721.618 141.176C725.415 133.344 730.696 127.114 737.46 122.486C744.224 117.739 751.818 115.366 760.244 115.366C770.568 115.366 777.806 118.867 781.96 125.868L783.562 116.968H801.184L792.284 167.876C791.928 170.368 791.75 172.563 791.75 174.462C791.75 177.547 792.343 179.861 793.53 181.404C794.835 182.947 797.09 183.718 800.294 183.718C804.803 183.718 808.66 181.523 811.864 177.132C815.068 172.623 817.441 167.105 818.984 160.578C820.645 154.051 821.476 147.703 821.476 141.532C821.476 126.461 817.085 114.951 808.304 107C799.522 99.0493 786.766 95.074 770.034 95.074C756.031 95.074 743.452 98.3967 732.298 105.042C721.262 111.687 712.599 120.825 706.31 132.454C700.02 144.083 696.876 157.018 696.876 171.258C696.876 186.447 701.385 198.017 710.404 205.968C719.422 213.919 732.298 217.894 749.03 217.894C760.303 217.894 770.152 215.817 778.578 211.664L781.248 225.192C770.449 229.82 758.345 232.134 744.936 232.134C732.001 232.134 720.668 229.701 710.938 224.836C701.207 219.971 693.672 213.029 688.332 204.01C682.992 195.11 680.322 184.727 680.322 172.86C680.322 155.891 684.238 140.405 692.07 126.402C700.02 112.399 710.997 101.363 725 93.294C739.002 85.106 754.844 81.012 772.526 81.012ZM751.522 181.582C756.506 181.582 761.015 180.158 765.05 177.31C769.203 174.343 772.466 170.487 774.84 165.74C777.213 160.875 778.4 155.713 778.4 150.254C778.4 144.558 776.798 139.93 773.594 136.37C770.508 132.691 766.118 130.852 760.422 130.852C755.319 130.852 750.81 132.454 746.894 135.658C743.096 138.743 740.13 142.778 737.994 147.762C735.976 152.746 734.968 157.967 734.968 163.426C734.968 169.003 736.332 173.453 739.062 176.776C741.791 179.98 745.944 181.582 751.522 181.582ZM894.347 96.32C901.942 96.32 908.647 97.8627 914.461 100.948C920.395 103.915 925.023 107.653 928.345 112.162V97.922H948.815V197.602C948.815 206.621 946.917 214.631 943.119 221.632C939.322 228.752 933.804 234.329 926.565 238.364C919.445 242.399 910.901 244.416 900.933 244.416C887.643 244.416 876.607 241.271 867.825 234.982C859.044 228.811 854.06 220.386 852.873 209.706H872.987C874.53 214.809 877.793 218.903 882.777 221.988C887.88 225.192 893.932 226.794 900.933 226.794C909.121 226.794 915.707 224.302 920.691 219.318C925.794 214.334 928.345 207.095 928.345 197.602V181.226C924.904 185.854 920.217 189.77 914.283 192.974C908.469 196.059 901.823 197.602 894.347 197.602C885.803 197.602 877.971 195.466 870.851 191.194C863.85 186.803 858.273 180.751 854.119 173.038C850.085 165.206 848.067 156.365 848.067 146.516C848.067 136.667 850.085 127.945 854.119 120.35C858.273 112.755 863.85 106.881 870.851 102.728C877.971 98.456 885.803 96.32 894.347 96.32ZM928.345 146.872C928.345 140.108 926.921 134.234 924.073 129.25C921.344 124.266 917.725 120.469 913.215 117.858C908.706 115.247 903.841 113.942 898.619 113.942C893.398 113.942 888.533 115.247 884.023 117.858C879.514 120.35 875.835 124.088 872.987 129.072C870.258 133.937 868.893 139.752 868.893 146.516C868.893 153.28 870.258 159.213 872.987 164.316C875.835 169.419 879.514 173.335 884.023 176.064C888.651 178.675 893.517 179.98 898.619 179.98C903.841 179.98 908.706 178.675 913.215 176.064C917.725 173.453 921.344 169.656 924.073 164.672C926.921 159.569 928.345 153.636 928.345 146.872ZM1085.29 96.32C1093.01 96.32 1099.89 97.922 1105.94 101.126C1112.11 104.33 1116.92 109.077 1120.36 115.366C1123.92 121.655 1125.7 129.25 1125.7 138.15V196H1105.59V141.176C1105.59 132.395 1103.39 125.69 1099 121.062C1094.61 116.315 1088.62 113.942 1081.02 113.942C1073.43 113.942 1067.38 116.315 1062.87 121.062C1058.48 125.69 1056.28 132.395 1056.28 141.176V196H1036.17V141.176C1036.17 132.395 1033.97 125.69 1029.58 121.062C1025.19 116.315 1019.2 113.942 1011.6 113.942C1004.01 113.942 997.955 116.315 993.446 121.062C989.055 125.69 986.86 132.395 986.86 141.176V196H966.568V97.922H986.86V109.136C990.183 105.101 994.395 101.957 999.498 99.702C1004.6 97.4473 1010.06 96.32 1015.87 96.32C1023.71 96.32 1030.71 97.9813 1036.88 101.304C1043.05 104.627 1047.8 109.433 1051.12 115.722C1054.08 109.789 1058.71 105.101 1065 101.66C1071.29 98.1 1078.06 96.32 1085.29 96.32ZM1135.86 146.516C1135.86 136.667 1137.87 127.945 1141.91 120.35C1146.06 112.755 1151.64 106.881 1158.64 102.728C1165.76 98.456 1173.59 96.32 1182.14 96.32C1189.85 96.32 1196.56 97.8627 1202.25 100.948C1208.07 103.915 1212.69 107.653 1216.14 112.162V97.922H1236.61V196H1216.14V181.404C1212.69 186.032 1208.01 189.889 1202.07 192.974C1196.14 196.059 1189.38 197.602 1181.78 197.602C1173.36 197.602 1165.64 195.466 1158.64 191.194C1151.64 186.803 1146.06 180.751 1141.91 173.038C1137.87 165.206 1135.86 156.365 1135.86 146.516ZM1216.14 146.872C1216.14 140.108 1214.71 134.234 1211.86 129.25C1209.13 124.266 1205.51 120.469 1201.01 117.858C1196.5 115.247 1191.63 113.942 1186.41 113.942C1181.19 113.942 1176.32 115.247 1171.81 117.858C1167.3 120.35 1163.63 124.088 1160.78 129.072C1158.05 133.937 1156.68 139.752 1156.68 146.516C1156.68 153.28 1158.05 159.213 1160.78 164.316C1163.63 169.419 1167.3 173.335 1171.81 176.064C1176.44 178.675 1181.31 179.98 1186.41 179.98C1191.63 179.98 1196.5 178.675 1201.01 176.064C1205.51 173.453 1209.13 169.656 1211.86 164.672C1214.71 159.569 1216.14 153.636 1216.14 146.872ZM1264.68 84.928C1261 84.928 1257.92 83.682 1255.43 81.19C1252.93 78.698 1251.69 75.6127 1251.69 71.934C1251.69 68.2553 1252.93 65.17 1255.43 62.678C1257.92 60.186 1261 58.94 1264.68 58.94C1268.24 58.94 1271.27 60.186 1273.76 62.678C1276.25 65.17 1277.5 68.2553 1277.5 71.934C1277.5 75.6127 1276.25 78.698 1273.76 81.19C1271.27 83.682 1268.24 84.928 1264.68 84.928ZM1274.65 97.922V196H1254.36V97.922H1274.65ZM1312.68 64.28V196H1292.39V64.28H1312.68ZM1338.61 197.246C1334.93 197.246 1331.85 196 1329.36 193.508C1326.86 191.016 1325.62 187.931 1325.62 184.252C1325.62 180.573 1326.86 177.488 1329.36 174.996C1331.85 172.504 1334.93 171.258 1338.61 171.258C1342.17 171.258 1345.2 172.504 1347.69 174.996C1350.18 177.488 1351.43 180.573 1351.43 184.252C1351.43 187.931 1350.18 191.016 1347.69 193.508C1345.2 196 1342.17 197.246 1338.61 197.246ZM1357.7 146.872C1357.7 136.785 1359.71 127.945 1363.75 120.35C1367.9 112.637 1373.6 106.703 1380.84 102.55C1388.08 98.3967 1396.38 96.32 1405.76 96.32C1417.62 96.32 1427.41 99.168 1435.13 104.864C1442.96 110.441 1448.24 118.451 1450.97 128.894H1429.07C1427.29 124.029 1424.45 120.231 1420.53 117.502C1416.61 114.773 1411.69 113.408 1405.76 113.408C1397.45 113.408 1390.8 116.375 1385.82 122.308C1380.96 128.123 1378.52 136.311 1378.52 146.872C1378.52 157.433 1380.96 165.681 1385.82 171.614C1390.8 177.547 1397.45 180.514 1405.76 180.514C1417.5 180.514 1425.28 175.352 1429.07 165.028H1450.97C1448.12 174.996 1442.78 182.947 1434.95 188.88C1427.12 194.695 1417.39 197.602 1405.76 197.602C1396.38 197.602 1388.08 195.525 1380.84 191.372C1373.6 187.1 1367.9 181.167 1363.75 173.572C1359.71 165.859 1357.7 156.959 1357.7 146.872ZM1504.83 197.602C1495.58 197.602 1487.21 195.525 1479.74 191.372C1472.26 187.1 1466.39 181.167 1462.11 173.572C1457.84 165.859 1455.71 156.959 1455.71 146.872C1455.71 136.904 1457.9 128.063 1462.29 120.35C1466.68 112.637 1472.67 106.703 1480.27 102.55C1487.86 98.3967 1496.35 96.32 1505.72 96.32C1515.1 96.32 1523.58 98.3967 1531.18 102.55C1538.77 106.703 1544.76 112.637 1549.16 120.35C1553.55 128.063 1555.74 136.904 1555.74 146.872C1555.74 156.84 1553.49 165.681 1548.98 173.394C1544.47 181.107 1538.3 187.1 1530.47 191.372C1522.75 195.525 1514.21 197.602 1504.83 197.602ZM1504.83 179.98C1510.05 179.98 1514.92 178.734 1519.43 176.242C1524.06 173.75 1527.8 170.012 1530.64 165.028C1533.49 160.044 1534.92 153.992 1534.92 146.872C1534.92 139.752 1533.55 133.759 1530.82 128.894C1528.09 123.91 1524.47 120.172 1519.96 117.68C1515.45 115.188 1510.59 113.942 1505.37 113.942C1500.15 113.942 1495.28 115.188 1490.77 117.68C1486.38 120.172 1482.88 123.91 1480.27 128.894C1477.66 133.759 1476.35 139.752 1476.35 146.872C1476.35 157.433 1479.02 165.621 1484.36 171.436C1489.82 177.132 1496.65 179.98 1504.83 179.98ZM1685.63 96.32C1693.34 96.32 1700.22 97.922 1706.27 101.126C1712.45 104.33 1717.25 109.077 1720.69 115.366C1724.25 121.655 1726.03 129.25 1726.03 138.15V196H1705.92V141.176C1705.92 132.395 1703.72 125.69 1699.33 121.062C1694.94 116.315 1688.95 113.942 1681.35 113.942C1673.76 113.942 1667.71 116.315 1663.2 121.062C1658.81 125.69 1656.61 132.395 1656.61 141.176V196H1636.5V141.176C1636.5 132.395 1634.3 125.69 1629.91 121.062C1625.52 116.315 1619.53 113.942 1611.93 113.942C1604.34 113.942 1598.29 116.315 1593.78 121.062C1589.39 125.69 1587.19 132.395 1587.19 141.176V196H1566.9V97.922H1587.19V109.136C1590.52 105.101 1594.73 101.957 1599.83 99.702C1604.93 97.4473 1610.39 96.32 1616.21 96.32C1624.04 96.32 1631.04 97.9813 1637.21 101.304C1643.38 104.627 1648.13 109.433 1651.45 115.722C1654.42 109.789 1659.05 105.101 1665.33 101.66C1671.62 98.1 1678.39 96.32 1685.63 96.32Z" fill="#FF7300"/>
</g>
<g filter="url(#filter1_i_50_79)">
<path d="M170.298 61.6028H71.1026C66.5667 61.6028 62.2166 63.3999 59.0092 66.5986C55.8019 69.7974 54 74.1359 54 78.6596V181C54 185.524 55.8019 189.863 59.0092 193.061C62.2166 196.26 66.5667 198.057 71.1026 198.057H214.222C218.758 198.057 223.108 196.26 226.315 193.061C229.522 189.863 231.324 185.524 231.324 181V122.581" stroke="#FF7300" stroke-width="22" stroke-linecap="round" stroke-linejoin="round"/>
<path d="M81.3643 88.8937L142.934 136.653L180.132 108.65" stroke="#FF7300" stroke-width="22" stroke-linecap="round" stroke-linejoin="round"/>
<path d="M218.164 65.8227C223.44 65.8228 227.666 70.0805 227.666 75.27C227.666 80.4593 223.439 84.7162 218.164 84.7163C212.889 84.7163 208.662 80.4593 208.662 75.27C208.662 70.0805 212.889 65.8227 218.164 65.8227Z" stroke="#FF7300" stroke-width="22"/>
<mask id="path-6-inside-1_50_79" fill="white">
<path d="M218.186 102.539C212.778 102.539 207.491 100.94 202.995 97.9434C198.498 94.9469 194.994 90.688 192.924 85.7052C190.855 80.7223 190.313 75.2393 191.368 69.9495C192.423 64.6598 195.027 59.8008 198.851 55.9871C202.675 52.1734 207.547 49.5762 212.851 48.524C218.155 47.4718 223.653 48.0118 228.649 50.0758C233.645 52.1397 237.916 55.635 240.92 60.1194C243.925 64.6039 245.528 69.8761 245.528 75.2696C245.523 82.5002 242.64 89.433 237.514 94.5458C232.387 99.6586 225.436 102.533 218.186 102.539ZM218.186 61.6454C215.479 61.6412 212.831 62.4379 210.578 63.9347C208.326 65.4316 206.569 67.5612 205.53 70.0542C204.491 72.5472 204.217 75.2915 204.742 77.9399C205.268 80.5882 206.569 83.0216 208.482 84.9321C210.395 86.8426 212.832 88.1443 215.487 88.6725C218.142 89.2008 220.894 88.9318 223.395 87.8996C225.897 86.8675 228.035 85.1185 229.539 82.8741C231.043 80.6296 231.846 77.9906 231.846 75.2909C231.846 71.6756 230.408 68.208 227.846 65.6496C225.285 63.0912 221.811 61.6511 218.186 61.6454Z"/>
</mask>
<path d="M218.186 102.539V124.539H218.194L218.203 124.539L218.186 102.539ZM245.528 75.2696L267.528 75.2868L267.528 75.2782V75.2696H245.528ZM218.186 61.6454L218.22 39.6455L218.186 61.6454ZM231.846 75.2909L253.846 75.2909V75.2909L231.846 75.2909ZM218.186 102.539V80.5391C217.116 80.5391 216.075 80.2224 215.195 79.6359L202.995 97.9434L190.795 116.251C198.908 121.657 208.44 124.539 218.186 124.539V102.539ZM202.995 97.9434L215.195 79.6359C214.315 79.0498 213.639 78.223 213.241 77.2668L192.924 85.7052L172.607 94.1435C176.349 103.153 182.681 110.844 190.795 116.251L202.995 97.9434ZM192.924 85.7052L213.241 77.2668C212.845 76.3112 212.742 75.2631 212.943 74.2526L191.368 69.9495L169.793 65.6464C167.885 75.2155 168.865 85.1334 172.607 94.1435L192.924 85.7052ZM191.368 69.9495L212.943 74.2526C213.145 73.2417 213.644 72.3051 214.387 71.5643L198.851 55.9871L183.316 40.4099C176.411 47.2965 171.702 56.0778 169.793 65.6464L191.368 69.9495ZM198.851 55.9871L214.387 71.5643C215.13 70.8229 216.084 70.3113 217.132 70.1035L212.851 48.524L208.57 26.9445C199.01 28.8411 190.22 33.5238 183.316 40.4099L198.851 55.9871ZM212.851 48.524L217.132 70.1035C218.18 69.8956 219.266 70.0028 220.249 70.4091L228.649 50.0758L237.049 29.7425C228.04 26.0208 218.13 25.048 208.57 26.9445L212.851 48.524ZM228.649 50.0758L220.249 70.4091C221.232 70.8152 222.063 71.4989 222.643 72.3646L240.92 60.1194L259.197 47.8742C253.769 39.771 246.059 33.4643 237.049 29.7425L228.649 50.0758ZM240.92 60.1194L222.643 72.3646C223.223 73.2297 223.528 74.2405 223.528 75.2696H245.528H267.528C267.528 65.5118 264.627 55.978 259.197 47.8742L240.92 60.1194ZM245.528 75.2696L223.528 75.2523C223.527 76.6351 222.977 77.9728 221.978 78.9686L237.514 94.5458L253.049 110.123C262.304 100.893 267.518 88.3652 267.528 75.2868L245.528 75.2696ZM237.514 94.5458L221.978 78.9686C220.978 79.9663 219.609 80.538 218.168 80.5391L218.186 102.539L218.203 124.539C231.263 124.529 243.796 119.351 253.049 110.123L237.514 94.5458ZM218.186 61.6454L218.22 39.6455C211.173 39.6345 204.277 41.7081 198.404 45.6106L210.578 63.9347L222.753 82.2589C221.385 83.1678 219.784 83.648 218.151 83.6454L218.186 61.6454ZM210.578 63.9347L198.404 45.6106C192.529 49.5136 187.939 55.073 185.222 61.592L205.53 70.0542L225.837 78.5164C225.198 80.0494 224.122 81.3495 222.753 82.2589L210.578 63.9347ZM205.53 70.0542L185.222 61.592C182.506 68.1116 181.788 75.2919 183.163 82.2218L204.742 77.9399L226.322 73.6579C226.646 75.2911 226.476 76.9828 225.837 78.5164L205.53 70.0542ZM204.742 77.9399L183.163 82.2218C184.538 89.1514 187.942 95.5103 192.934 100.497L208.482 84.9321L224.03 69.367C225.197 70.5329 225.998 72.0251 226.322 73.6579L204.742 77.9399ZM208.482 84.9321L192.934 100.497C197.926 105.483 204.282 108.874 211.194 110.249L215.487 88.6725L219.781 67.0956C221.383 67.4145 222.863 68.2017 224.03 69.367L208.482 84.9321ZM215.487 88.6725L211.194 110.249C218.105 111.625 225.271 110.925 231.787 108.236L223.395 87.8996L215.003 67.563C216.517 66.9386 218.178 66.7767 219.781 67.0956L215.487 88.6725ZM223.395 87.8996L231.787 108.236C238.304 105.547 243.883 100.987 247.814 95.1229L229.539 82.8741L211.264 70.6253C212.186 69.2503 213.489 68.1877 215.003 67.563L223.395 87.8996ZM229.539 82.8741L247.814 95.1229C251.744 89.2584 253.846 82.3565 253.846 75.2909L231.846 75.2909L209.846 75.2908C209.846 73.6247 210.342 72.0009 211.264 70.6253L229.539 82.8741ZM231.846 75.2909L253.846 75.2909C253.846 65.8277 250.08 56.7632 243.394 50.0846L227.846 65.6496L212.299 81.2147C210.735 79.6528 209.846 77.5234 209.846 75.2908L231.846 75.2909ZM227.846 65.6496L243.394 50.0846C236.71 43.4079 227.655 39.6602 218.22 39.6455L218.186 61.6454L218.151 83.6454C215.967 83.642 213.86 82.7746 212.299 81.2147L227.846 65.6496Z" fill="#FF7300" mask="url(#path-6-inside-1_50_79)"/>
</g>
<defs>
<filter id="filter0_i_50_79" x="291.35" y="58.94" width="1434.68" height="189.476" filterUnits="userSpaceOnUse" color-interpolation-filters="sRGB">
<feFlood flood-opacity="0" result="BackgroundImageFix"/>
<feBlend mode="normal" in="SourceGraphic" in2="BackgroundImageFix" result="shape"/>
<feColorMatrix in="SourceAlpha" type="matrix" values="0 0 0 0 0 0 0 0 0 0 0 0 0 0 0 0 0 0 127 0" result="hardAlpha"/>
<feOffset dy="4"/>
<feGaussianBlur stdDeviation="2.5"/>
<feComposite in2="hardAlpha" operator="arithmetic" k2="-1" k3="1"/>
<feColorMatrix type="matrix" values="0 0 0 0 0 0 0 0 0 0 0 0 0 0 0 0 0 0 0.25 0"/>
<feBlend mode="normal" in2="shape" result="effect1_innerShadow_50_79"/>
</filter>
<filter id="filter1_i_50_79" x="43" y="48" width="202.528" height="165.057" filterUnits="userSpaceOnUse" color-interpolation-filters="sRGB">
<feFlood flood-opacity="0" result="BackgroundImageFix"/>
<feBlend mode="normal" in="SourceGraphic" in2="BackgroundImageFix" result="shape"/>
<feColorMatrix in="SourceAlpha" type="matrix" values="0 0 0 0 0 0 0 0 0 0 0 0 0 0 0 0 0 0 127 0" result="hardAlpha"/>
<feOffset dy="4"/>
<feGaussianBlur stdDeviation="2"/>
<feComposite in2="hardAlpha" operator="arithmetic" k2="-1" k3="1"/>
<feColorMatrix type="matrix" values="0 0 0 0 0 0 0 0 0 0 0 0 0 0 0 0 0 0 0.25 0"/>
<feBlend mode="normal" in2="shape" result="effect1_innerShadow_50_79"/>
</filter>
<linearGradient id="paint0_linear_50_79" x1="886" y1="-35.5" x2="886" y2="487" gradientUnits="userSpaceOnUse">
<stop stop-color="#FFE5CB"/>
<stop offset="1" stop-color="#FF7B00"/>
</linearGradient>
<linearGradient id="paint1_linear_50_79" x1="858.313" y1="28.6415" x2="854.782" y2="317.617" gradientUnits="userSpaceOnUse">
<stop stop-color="#FFECD3"/>
<stop offset="1" stop-color="#FF7300"/>
</linearGradient>
</defs>
</svg>
