<svg width="890" height="267" viewBox="0 0 890 267" fill="none" xmlns="http://www.w3.org/2000/svg">
<rect x="3.5" y="10.5" width="883" height="240" rx="36.5" fill="url(#paint0_linear_50_81)" stroke="url(#paint1_linear_50_81)" stroke-width="7"/>
<g filter="url(#filter0_i_50_81)">
<path d="M359.664 81.012C373.192 81.012 384.881 83.504 394.73 88.488C404.579 93.472 412.055 100.473 417.158 109.492C422.379 118.392 424.99 128.775 424.99 140.642C424.99 150.135 423.329 159.213 420.006 167.876C416.802 176.539 412.115 183.599 405.944 189.058C399.892 194.517 392.713 197.246 384.406 197.246C378.354 197.246 373.607 195.941 370.166 193.33C366.725 190.601 364.589 186.803 363.758 181.938C360.079 186.685 355.451 190.423 349.874 193.152C344.297 195.881 338.482 197.246 332.43 197.246C323.293 197.246 316.113 194.517 310.892 189.058C305.789 183.481 303.238 175.945 303.238 166.452C303.238 157.433 305.077 149.008 308.756 141.176C312.553 133.344 317.834 127.114 324.598 122.486C331.362 117.739 338.957 115.366 347.382 115.366C357.706 115.366 364.945 118.867 369.098 125.868L370.7 116.968H388.322L379.422 167.876C379.066 170.368 378.888 172.563 378.888 174.462C378.888 177.547 379.481 179.861 380.668 181.404C381.973 182.947 384.228 183.718 387.432 183.718C391.941 183.718 395.798 181.523 399.002 177.132C402.206 172.623 404.579 167.105 406.122 160.578C407.783 154.051 408.614 147.703 408.614 141.532C408.614 126.461 404.223 114.951 395.442 107C386.661 99.0493 373.904 95.074 357.172 95.074C343.169 95.074 330.591 98.3967 319.436 105.042C308.4 111.687 299.737 120.825 293.448 132.454C287.159 144.083 284.014 157.018 284.014 171.258C284.014 186.447 288.523 198.017 297.542 205.968C306.561 213.919 319.436 217.894 336.168 217.894C347.441 217.894 357.291 215.817 365.716 211.664L368.386 225.192C357.587 229.82 345.483 232.134 332.074 232.134C319.139 232.134 307.807 229.701 298.076 224.836C288.345 219.971 280.81 213.029 275.47 204.01C270.13 195.11 267.46 184.727 267.46 172.86C267.46 155.891 271.376 140.405 279.208 126.402C287.159 112.399 298.135 101.363 312.138 93.294C326.141 85.106 341.983 81.012 359.664 81.012ZM338.66 181.582C343.644 181.582 348.153 180.158 352.188 177.31C356.341 174.343 359.605 170.487 361.978 165.74C364.351 160.875 365.538 155.713 365.538 150.254C365.538 144.558 363.936 139.93 360.732 136.37C357.647 132.691 353.256 130.852 347.56 130.852C342.457 130.852 337.948 132.454 334.032 135.658C330.235 138.743 327.268 142.778 325.132 147.762C323.115 152.746 322.106 157.967 322.106 163.426C322.106 169.003 323.471 173.453 326.2 176.776C328.929 179.98 333.083 181.582 338.66 181.582ZM462.262 64.28V196H441.97V64.28H462.262ZM490.327 84.928C486.648 84.928 483.563 83.682 481.071 81.19C478.579 78.698 477.333 75.6127 477.333 71.934C477.333 68.2553 478.579 65.17 481.071 62.678C483.563 60.186 486.648 58.94 490.327 58.94C493.887 58.94 496.913 60.186 499.405 62.678C501.897 65.17 503.143 68.2553 503.143 71.934C503.143 75.6127 501.897 78.698 499.405 81.19C496.913 83.682 493.887 84.928 490.327 84.928ZM500.295 97.922V196H480.003V97.922H500.295ZM538.329 64.28V196H518.037V64.28H538.329ZM576.362 112.518C579.804 107.771 584.491 103.915 590.424 100.948C596.476 97.8627 603.181 96.32 610.538 96.32C619.201 96.32 627.033 98.3967 634.034 102.55C641.036 106.703 646.554 112.637 650.588 120.35C654.623 127.945 656.64 136.667 656.64 146.516C656.64 156.365 654.623 165.206 650.588 173.038C646.554 180.751 640.976 186.803 633.856 191.194C626.855 195.466 619.082 197.602 610.538 197.602C602.944 197.602 596.18 196.119 590.246 193.152C584.432 190.185 579.804 186.388 576.362 181.76V196H556.07V64.28H576.362V112.518ZM635.992 146.516C635.992 139.752 634.568 133.937 631.72 129.072C628.991 124.088 625.312 120.35 620.684 117.858C616.175 115.247 611.31 113.942 606.088 113.942C600.986 113.942 596.12 115.247 591.492 117.858C586.983 120.469 583.304 124.266 580.456 129.25C577.727 134.234 576.362 140.108 576.362 146.872C576.362 153.636 577.727 159.569 580.456 164.672C583.304 169.656 586.983 173.453 591.492 176.064C596.12 178.675 600.986 179.98 606.088 179.98C611.31 179.98 616.175 178.675 620.684 176.064C625.312 173.335 628.991 169.419 631.72 164.316C634.568 159.213 635.992 153.28 635.992 146.516ZM710.349 197.602C701.093 197.602 692.727 195.525 685.251 191.372C677.775 187.1 671.901 181.167 667.629 173.572C663.357 165.859 661.221 156.959 661.221 146.872C661.221 136.904 663.416 128.063 667.807 120.35C672.198 112.637 678.19 106.703 685.785 102.55C693.38 98.3967 701.864 96.32 711.239 96.32C720.614 96.32 729.098 98.3967 736.693 102.55C744.288 106.703 750.28 112.637 754.671 120.35C759.062 128.063 761.257 136.904 761.257 146.872C761.257 156.84 759.002 165.681 754.493 173.394C749.984 181.107 743.813 187.1 735.981 191.372C728.268 195.525 719.724 197.602 710.349 197.602ZM710.349 179.98C715.57 179.98 720.436 178.734 724.945 176.242C729.573 173.75 733.311 170.012 736.159 165.028C739.007 160.044 740.431 153.992 740.431 146.872C740.431 139.752 739.066 133.759 736.337 128.894C733.608 123.91 729.988 120.172 725.479 117.68C720.97 115.188 716.104 113.942 710.883 113.942C705.662 113.942 700.796 115.188 696.287 117.68C691.896 120.172 688.396 123.91 685.785 128.894C683.174 133.759 681.869 139.752 681.869 146.872C681.869 157.433 684.539 165.621 689.879 171.436C695.338 177.132 702.161 179.98 710.349 179.98ZM860.705 97.922L800.541 242.102H779.537L799.473 194.398L760.847 97.922H783.453L811.043 172.682L839.701 97.922H860.705Z" fill="#00FF99"/>
</g>
<g filter="url(#filter1_i_50_81)">
<path d="M167.832 59.3321C177.328 59.3604 186.426 63.1451 193.141 69.8595C199.855 76.5739 203.64 85.6724 203.668 95.1679V166.832C203.64 176.328 199.855 185.426 193.141 192.141C186.426 198.855 177.328 202.64 167.832 202.668H96.1679C86.6724 202.64 77.5739 198.855 70.8595 192.141C64.1451 185.426 60.3604 176.328 60.3321 166.832V95.1679C60.3604 85.6724 64.1451 76.5739 70.8595 69.8595C77.5739 63.1451 86.6724 59.3604 96.1679 59.3321H167.832ZM167.832 45H96.1679C68.575 45 46 67.575 46 95.1679V166.832C46 194.425 68.575 217 96.1679 217H167.832C195.425 217 218 194.425 218 166.832V95.1679C218 67.575 195.425 45 167.832 45Z" fill="#00FF99"/>
<path d="M178.582 95.168C176.456 95.168 174.378 94.5375 172.61 93.3563C170.842 92.175 169.464 90.4961 168.65 88.5318C167.837 86.5675 167.624 84.406 168.039 82.3208C168.453 80.2355 169.477 78.32 170.981 76.8166C172.484 75.3132 174.4 74.2893 176.485 73.8745C178.57 73.4597 180.732 73.6726 182.696 74.4863C184.66 75.2999 186.339 76.6778 187.52 78.4456C188.702 80.2134 189.332 82.2918 189.332 84.418C189.335 85.8305 189.059 87.2298 188.52 88.5354C187.981 89.841 187.189 91.0273 186.19 92.0261C185.191 93.025 184.005 93.8167 182.7 94.3559C181.394 94.895 179.995 95.171 178.582 95.168ZM132 102.332C137.67 102.332 143.213 104.013 147.927 107.164C152.641 110.314 156.316 114.791 158.486 120.029C160.656 125.268 161.223 131.032 160.117 136.593C159.011 142.154 156.281 147.262 152.271 151.271C148.262 155.281 143.154 158.011 137.593 159.117C132.032 160.223 126.268 159.656 121.029 157.486C115.791 155.316 111.314 151.642 108.163 146.927C105.013 142.213 103.332 136.67 103.332 131C103.34 123.399 106.363 116.112 111.738 110.738C117.112 105.363 124.399 102.34 132 102.332ZM132 88C123.495 88 115.182 90.5219 108.11 95.2468C101.039 99.9717 95.5278 106.687 92.2732 114.545C89.0186 122.402 88.1671 131.048 89.8263 139.389C91.4854 147.73 95.5808 155.392 101.594 161.406C107.608 167.419 115.27 171.515 123.611 173.174C131.952 174.833 140.598 173.981 148.455 170.727C156.313 167.472 163.028 161.961 167.753 154.89C172.478 147.818 175 139.505 175 131C175 119.596 170.47 108.659 162.406 100.594C154.342 92.5304 143.404 88 132 88Z" fill="#00FF99"/>
</g>
<defs>
<filter id="filter0_i_50_81" x="267.46" y="58.94" width="593.245" height="187.162" filterUnits="userSpaceOnUse" color-interpolation-filters="sRGB">
<feFlood flood-opacity="0" result="BackgroundImageFix"/>
<feBlend mode="normal" in="SourceGraphic" in2="BackgroundImageFix" result="shape"/>
<feColorMatrix in="SourceAlpha" type="matrix" values="0 0 0 0 0 0 0 0 0 0 0 0 0 0 0 0 0 0 127 0" result="hardAlpha"/>
<feOffset dy="4"/>
<feGaussianBlur stdDeviation="2.5"/>
<feComposite in2="hardAlpha" operator="arithmetic" k2="-1" k3="1"/>
<feColorMatrix type="matrix" values="0 0 0 0 0 0 0 0 0 0 0 0 0 0 0 0 0 0 0.25 0"/>
<feBlend mode="normal" in2="shape" result="effect1_innerShadow_50_81"/>
</filter>
<filter id="filter1_i_50_81" x="46" y="45" width="172" height="176" filterUnits="userSpaceOnUse" color-interpolation-filters="sRGB">
<feFlood flood-opacity="0" result="BackgroundImageFix"/>
<feBlend mode="normal" in="SourceGraphic" in2="BackgroundImageFix" result="shape"/>
<feColorMatrix in="SourceAlpha" type="matrix" values="0 0 0 0 0 0 0 0 0 0 0 0 0 0 0 0 0 0 127 0" result="hardAlpha"/>
<feOffset dy="4"/>
<feGaussianBlur stdDeviation="2"/>
<feComposite in2="hardAlpha" operator="arithmetic" k2="-1" k3="1"/>
<feColorMatrix type="matrix" values="0 0 0 0 0 0 0 0 0 0 0 0 0 0 0 0 0 0 0.25 0"/>
<feBlend mode="normal" in2="shape" result="effect1_innerShadow_50_81"/>
</filter>
<linearGradient id="paint0_linear_50_81" x1="445.391" y1="-118.5" x2="472.846" y2="695.141" gradientUnits="userSpaceOnUse">
<stop stop-color="white"/>
<stop offset="1" stop-color="#00FF99"/>
</linearGradient>
<linearGradient id="paint1_linear_50_81" x1="431.094" y1="25.6415" x2="424.068" y2="314.489" gradientUnits="userSpaceOnUse">
<stop stop-color="#D1FFEC"/>
<stop offset="1" stop-color="#00FF99"/>
</linearGradient>
</defs>
</svg>
