<svg width="716" height="267" viewBox="0 0 716 267" fill="none" xmlns="http://www.w3.org/2000/svg">
<rect x="3.5" y="10.5" width="709" height="240" rx="36.5" fill="url(#paint0_linear_50_82)" stroke="url(#paint1_linear_50_82)" stroke-width="7"/>
<g filter="url(#filter0_i_50_82)">
<path d="M280.642 64.28V196H260.35V64.28H280.642ZM308.708 84.928C305.029 84.928 301.944 83.682 299.452 81.19C296.96 78.698 295.714 75.6127 295.714 71.934C295.714 68.2553 296.96 65.17 299.452 62.678C301.944 60.186 305.029 58.94 308.708 58.94C312.268 58.94 315.294 60.186 317.786 62.678C320.278 65.17 321.524 68.2553 321.524 71.934C321.524 75.6127 320.278 78.698 317.786 81.19C315.294 83.682 312.268 84.928 308.708 84.928ZM318.676 97.922V196H298.384V97.922H318.676ZM356.709 64.28V196H336.417V64.28H356.709ZM394.743 112.518C398.184 107.771 402.871 103.915 408.805 100.948C414.857 97.8627 421.561 96.32 428.919 96.32C437.581 96.32 445.413 98.3967 452.415 102.55C459.416 106.703 464.934 112.637 468.969 120.35C473.003 127.945 475.021 136.667 475.021 146.516C475.021 156.365 473.003 165.206 468.969 173.038C464.934 180.751 459.357 186.803 452.237 191.194C445.235 195.466 437.463 197.602 428.919 197.602C421.324 197.602 414.56 196.119 408.627 193.152C402.812 190.185 398.184 186.388 394.743 181.76V196H374.451V64.28H394.743V112.518ZM454.373 146.516C454.373 139.752 452.949 133.937 450.101 129.072C447.371 124.088 443.693 120.35 439.065 117.858C434.555 115.247 429.69 113.942 424.469 113.942C419.366 113.942 414.501 115.247 409.873 117.858C405.363 120.469 401.685 124.266 398.837 129.25C396.107 134.234 394.743 140.108 394.743 146.872C394.743 153.636 396.107 159.569 398.837 164.672C401.685 169.656 405.363 173.453 409.873 176.064C414.501 178.675 419.366 179.98 424.469 179.98C429.69 179.98 434.555 178.675 439.065 176.064C443.693 173.335 447.371 169.419 450.101 164.316C452.949 159.213 454.373 153.28 454.373 146.516ZM528.729 197.602C519.473 197.602 511.107 195.525 503.631 191.372C496.155 187.1 490.281 181.167 486.009 173.572C481.737 165.859 479.601 156.959 479.601 146.872C479.601 136.904 481.797 128.063 486.187 120.35C490.578 112.637 496.571 106.703 504.165 102.55C511.76 98.3967 520.245 96.32 529.619 96.32C538.994 96.32 547.479 98.3967 555.073 102.55C562.668 106.703 568.661 112.637 573.051 120.35C577.442 128.063 579.637 136.904 579.637 146.872C579.637 156.84 577.383 165.681 572.874 173.394C568.364 181.107 562.194 187.1 554.361 191.372C546.648 195.525 538.104 197.602 528.729 197.602ZM528.729 179.98C533.951 179.98 538.816 178.734 543.325 176.242C547.953 173.75 551.691 170.012 554.539 165.028C557.387 160.044 558.811 153.992 558.811 146.872C558.811 139.752 557.447 133.759 554.717 128.894C551.988 123.91 548.369 120.172 543.859 117.68C539.35 115.188 534.485 113.942 529.263 113.942C524.042 113.942 519.177 115.188 514.667 117.68C510.277 120.172 506.776 123.91 504.165 128.894C501.555 133.759 500.249 139.752 500.249 146.872C500.249 157.433 502.919 165.621 508.259 171.436C513.718 177.132 520.541 179.98 528.729 179.98ZM679.085 97.922L618.921 242.102H597.917L617.853 194.398L579.227 97.922H601.833L629.423 172.682L658.081 97.922H679.085Z" fill="#986DFF"/>
</g>
<g filter="url(#filter1_i_50_82)">
<path d="M135.5 41C86.1502 41 46 81.1502 46 130.5C46 179.85 86.1502 220 135.5 220C184.85 220 225 179.85 225 130.5C225 81.1502 184.85 41 135.5 41ZM113.891 91.2663C119.343 85.4875 127.015 82.3077 135.5 82.3077C143.985 82.3077 151.588 85.509 157.062 91.3179C162.608 97.2043 165.306 105.113 164.669 113.615C163.396 130.5 150.315 144.269 135.5 144.269C120.685 144.269 107.579 130.5 106.331 113.611C105.698 105.04 108.392 97.1053 113.891 91.2663ZM135.5 206.231C125.39 206.237 115.382 204.214 106.069 200.28C96.7559 196.347 88.3275 190.583 81.2837 183.331C85.3179 177.578 90.4581 172.686 96.404 168.942C107.372 161.911 121.253 158.038 135.5 158.038C149.747 158.038 163.628 161.911 174.583 168.942C180.534 172.684 185.679 177.576 189.716 183.331C182.673 190.584 174.245 196.348 164.932 200.282C155.618 204.215 145.61 206.238 135.5 206.231Z" fill="#986DFF"/>
</g>
<defs>
<filter id="filter0_i_50_82" x="260.35" y="58.94" width="418.735" height="187.162" filterUnits="userSpaceOnUse" color-interpolation-filters="sRGB">
<feFlood flood-opacity="0" result="BackgroundImageFix"/>
<feBlend mode="normal" in="SourceGraphic" in2="BackgroundImageFix" result="shape"/>
<feColorMatrix in="SourceAlpha" type="matrix" values="0 0 0 0 0 0 0 0 0 0 0 0 0 0 0 0 0 0 127 0" result="hardAlpha"/>
<feOffset dy="4"/>
<feGaussianBlur stdDeviation="2.5"/>
<feComposite in2="hardAlpha" operator="arithmetic" k2="-1" k3="1"/>
<feColorMatrix type="matrix" values="0 0 0 0 0 0 0 0 0 0 0 0 0 0 0 0 0 0 0.25 0"/>
<feBlend mode="normal" in2="shape" result="effect1_innerShadow_50_82"/>
</filter>
<filter id="filter1_i_50_82" x="46" y="41" width="179" height="183" filterUnits="userSpaceOnUse" color-interpolation-filters="sRGB">
<feFlood flood-opacity="0" result="BackgroundImageFix"/>
<feBlend mode="normal" in="SourceGraphic" in2="BackgroundImageFix" result="shape"/>
<feColorMatrix in="SourceAlpha" type="matrix" values="0 0 0 0 0 0 0 0 0 0 0 0 0 0 0 0 0 0 127 0" result="hardAlpha"/>
<feOffset dy="4"/>
<feGaussianBlur stdDeviation="2"/>
<feComposite in2="hardAlpha" operator="arithmetic" k2="-1" k3="1"/>
<feColorMatrix type="matrix" values="0 0 0 0 0 0 0 0 0 0 0 0 0 0 0 0 0 0 0.25 0"/>
<feBlend mode="normal" in2="shape" result="effect1_innerShadow_50_82"/>
</filter>
<linearGradient id="paint0_linear_50_82" x1="358.315" y1="-118.5" x2="392.42" y2="694.637" gradientUnits="userSpaceOnUse">
<stop stop-color="#F5F1FF"/>
<stop offset="1" stop-color="#4A00FF"/>
</linearGradient>
<linearGradient id="paint1_linear_50_82" x1="346.813" y1="25.6415" x2="338.082" y2="314.396" gradientUnits="userSpaceOnUse">
<stop stop-color="#D7C6FF"/>
<stop offset="1" stop-color="#814DFF"/>
</linearGradient>
</defs>
</svg>
