<svg width="1137" height="267" viewBox="0 0 1137 267" fill="none" xmlns="http://www.w3.org/2000/svg">
<rect x="3.5" y="10.5" width="1130" height="240" rx="36.5" fill="url(#paint0_linear_50_80)" stroke="url(#paint1_linear_50_80)" stroke-width="7"/>
<g filter="url(#filter0_i_50_80)">
<path d="M289.642 64.28V196H269.35V64.28H289.642ZM317.708 84.928C314.029 84.928 310.944 83.682 308.452 81.19C305.96 78.698 304.714 75.6127 304.714 71.934C304.714 68.2553 305.96 65.17 308.452 62.678C310.944 60.186 314.029 58.94 317.708 58.94C321.268 58.94 324.294 60.186 326.786 62.678C329.278 65.17 330.524 68.2553 330.524 71.934C330.524 75.6127 329.278 78.698 326.786 81.19C324.294 83.682 321.268 84.928 317.708 84.928ZM327.676 97.922V196H307.384V97.922H327.676ZM365.709 64.28V196H345.417V64.28H365.709ZM403.743 112.518C407.184 107.771 411.871 103.915 417.805 100.948C423.857 97.8627 430.561 96.32 437.919 96.32C446.581 96.32 454.413 98.3967 461.415 102.55C468.416 106.703 473.934 112.637 477.969 120.35C482.003 127.945 484.021 136.667 484.021 146.516C484.021 156.365 482.003 165.206 477.969 173.038C473.934 180.751 468.357 186.803 461.237 191.194C454.235 195.466 446.463 197.602 437.919 197.602C430.324 197.602 423.56 196.119 417.627 193.152C411.812 190.185 407.184 186.388 403.743 181.76V196H383.451V64.28H403.743V112.518ZM463.373 146.516C463.373 139.752 461.949 133.937 459.101 129.072C456.371 124.088 452.693 120.35 448.065 117.858C443.555 115.247 438.69 113.942 433.469 113.942C428.366 113.942 423.501 115.247 418.873 117.858C414.363 120.469 410.685 124.266 407.837 129.25C405.107 134.234 403.743 140.108 403.743 146.872C403.743 153.636 405.107 159.569 407.837 164.672C410.685 169.656 414.363 173.453 418.873 176.064C423.501 178.675 428.366 179.98 433.469 179.98C438.69 179.98 443.555 178.675 448.065 176.064C452.693 173.335 456.371 169.419 459.101 164.316C461.949 159.213 463.373 153.28 463.373 146.516ZM537.729 197.602C528.473 197.602 520.107 195.525 512.631 191.372C505.155 187.1 499.281 181.167 495.009 173.572C490.737 165.859 488.601 156.959 488.601 146.872C488.601 136.904 490.797 128.063 495.187 120.35C499.578 112.637 505.571 106.703 513.165 102.55C520.76 98.3967 529.245 96.32 538.619 96.32C547.994 96.32 556.479 98.3967 564.073 102.55C571.668 106.703 577.661 112.637 582.051 120.35C586.442 128.063 588.637 136.904 588.637 146.872C588.637 156.84 586.383 165.681 581.874 173.394C577.364 181.107 571.194 187.1 563.361 191.372C555.648 195.525 547.104 197.602 537.729 197.602ZM537.729 179.98C542.951 179.98 547.816 178.734 552.325 176.242C556.953 173.75 560.691 170.012 563.539 165.028C566.387 160.044 567.811 153.992 567.811 146.872C567.811 139.752 566.447 133.759 563.717 128.894C560.988 123.91 557.369 120.172 552.859 117.68C548.35 115.188 543.485 113.942 538.263 113.942C533.042 113.942 528.177 115.188 523.667 117.68C519.277 120.172 515.776 123.91 513.165 128.894C510.555 133.759 509.249 139.752 509.249 146.872C509.249 157.433 511.919 165.621 517.259 171.436C522.718 177.132 529.541 179.98 537.729 179.98ZM688.085 97.922L627.921 242.102H606.917L626.853 194.398L588.227 97.922H610.833L638.423 172.682L667.081 97.922H688.085ZM702.687 197.246C699.008 197.246 695.923 196 693.431 193.508C690.939 191.016 689.693 187.931 689.693 184.252C689.693 180.573 690.939 177.488 693.431 174.996C695.923 172.504 699.008 171.258 702.687 171.258C706.247 171.258 709.273 172.504 711.765 174.996C714.257 177.488 715.503 180.573 715.503 184.252C715.503 187.931 714.257 191.016 711.765 193.508C709.273 196 706.247 197.246 702.687 197.246ZM721.77 146.872C721.77 136.785 723.788 127.945 727.822 120.35C731.976 112.637 737.672 106.703 744.91 102.55C752.149 98.3967 760.456 96.32 769.83 96.32C781.697 96.32 791.487 99.168 799.2 104.864C807.032 110.441 812.313 118.451 815.042 128.894H793.148C791.368 124.029 788.52 120.231 784.604 117.502C780.688 114.773 775.764 113.408 769.83 113.408C761.524 113.408 754.878 116.375 749.894 122.308C745.029 128.123 742.596 136.311 742.596 146.872C742.596 157.433 745.029 165.681 749.894 171.614C754.878 177.547 761.524 180.514 769.83 180.514C781.578 180.514 789.351 175.352 793.148 165.028H815.042C812.194 174.996 806.854 182.947 799.022 188.88C791.19 194.695 781.46 197.602 769.83 197.602C760.456 197.602 752.149 195.525 744.91 191.372C737.672 187.1 731.976 181.167 727.822 173.572C723.788 165.859 721.77 156.959 721.77 146.872ZM868.907 197.602C859.651 197.602 851.285 195.525 843.809 191.372C836.333 187.1 830.459 181.167 826.187 173.572C821.915 165.859 819.779 156.959 819.779 146.872C819.779 136.904 821.974 128.063 826.365 120.35C830.755 112.637 836.748 106.703 844.343 102.55C851.938 98.3967 860.422 96.32 869.797 96.32C879.172 96.32 887.656 98.3967 895.251 102.55C902.846 106.703 908.838 112.637 913.229 120.35C917.62 128.063 919.815 136.904 919.815 146.872C919.815 156.84 917.56 165.681 913.051 173.394C908.542 181.107 902.371 187.1 894.539 191.372C886.826 195.525 878.281 197.602 868.907 197.602ZM868.907 179.98C874.128 179.98 878.994 178.734 883.503 176.242C888.131 173.75 891.869 170.012 894.717 165.028C897.565 160.044 898.989 153.992 898.989 146.872C898.989 139.752 897.624 133.759 894.895 128.894C892.165 123.91 888.546 120.172 884.037 117.68C879.528 115.188 874.662 113.942 869.441 113.942C864.219 113.942 859.354 115.188 854.845 117.68C850.454 120.172 846.954 123.91 844.343 128.894C841.732 133.759 840.427 139.752 840.427 146.872C840.427 157.433 843.097 165.621 848.437 171.436C853.895 177.132 860.719 179.98 868.907 179.98ZM1049.7 96.32C1057.41 96.32 1064.3 97.922 1070.35 101.126C1076.52 104.33 1081.33 109.077 1084.77 115.366C1088.33 121.655 1090.11 129.25 1090.11 138.15V196H1069.99V141.176C1069.99 132.395 1067.8 125.69 1063.41 121.062C1059.02 116.315 1053.02 113.942 1045.43 113.942C1037.83 113.942 1031.78 116.315 1027.27 121.062C1022.88 125.69 1020.69 132.395 1020.69 141.176V196H1000.57V141.176C1000.57 132.395 998.377 125.69 993.987 121.062C989.596 116.315 983.603 113.942 976.009 113.942C968.414 113.942 962.362 116.315 957.853 121.062C953.462 125.69 951.267 132.395 951.267 141.176V196H930.975V97.922H951.267V109.136C954.589 105.101 958.802 101.957 963.905 99.702C969.007 97.4473 974.466 96.32 980.281 96.32C988.113 96.32 995.114 97.9813 1001.28 101.304C1007.46 104.627 1012.2 109.433 1015.52 115.722C1018.49 109.789 1023.12 105.101 1029.41 101.66C1035.7 98.1 1042.46 96.32 1049.7 96.32Z" fill="#8CFF00"/>
</g>
<g filter="url(#filter1_i_50_80)">
<path d="M135.5 48C89.9386 48 53 84.9386 53 130.5C53 176.061 89.9386 213 135.5 213C181.061 213 218 176.061 218 130.5C218 84.9386 181.061 48 135.5 48Z" stroke="#8AFC00" stroke-width="12" stroke-miterlimit="10"/>
<path d="M135.5 48C112.467 48 90.811 84.9386 90.811 130.5C90.811 176.061 112.467 213 135.5 213C158.532 213 180.189 176.061 180.189 130.5C180.189 84.9386 158.532 48 135.5 48Z" stroke="#8AFC00" stroke-width="12" stroke-miterlimit="10"/>
<path d="M80.4985 75.4987C95.6658 86.2673 114.76 92.6888 135.5 92.6888C156.24 92.6888 175.334 86.2673 190.501 75.4987M190.501 185.501C175.334 174.733 156.24 168.311 135.5 168.311C114.76 168.311 95.6658 174.733 80.4985 185.501" stroke="#8AFC00" stroke-width="12" stroke-linecap="round" stroke-linejoin="round"/>
<path d="M135.5 48V213M218 130.5H53" stroke="#8AFC00" stroke-width="12" stroke-miterlimit="10"/>
</g>
<defs>
<filter id="filter0_i_50_80" x="269.35" y="58.94" width="820.756" height="187.162" filterUnits="userSpaceOnUse" color-interpolation-filters="sRGB">
<feFlood flood-opacity="0" result="BackgroundImageFix"/>
<feBlend mode="normal" in="SourceGraphic" in2="BackgroundImageFix" result="shape"/>
<feColorMatrix in="SourceAlpha" type="matrix" values="0 0 0 0 0 0 0 0 0 0 0 0 0 0 0 0 0 0 127 0" result="hardAlpha"/>
<feOffset dy="4"/>
<feGaussianBlur stdDeviation="2.5"/>
<feComposite in2="hardAlpha" operator="arithmetic" k2="-1" k3="1"/>
<feColorMatrix type="matrix" values="0 0 0 0 0 0 0 0 0 0 0 0 0 0 0 0 0 0 0.25 0"/>
<feBlend mode="normal" in2="shape" result="effect1_innerShadow_50_80"/>
</filter>
<filter id="filter1_i_50_80" x="47" y="42" width="177" height="181" filterUnits="userSpaceOnUse" color-interpolation-filters="sRGB">
<feFlood flood-opacity="0" result="BackgroundImageFix"/>
<feBlend mode="normal" in="SourceGraphic" in2="BackgroundImageFix" result="shape"/>
<feColorMatrix in="SourceAlpha" type="matrix" values="0 0 0 0 0 0 0 0 0 0 0 0 0 0 0 0 0 0 127 0" result="hardAlpha"/>
<feOffset dy="4"/>
<feGaussianBlur stdDeviation="2"/>
<feComposite in2="hardAlpha" operator="arithmetic" k2="-1" k3="1"/>
<feColorMatrix type="matrix" values="0 0 0 0 0 0 0 0 0 0 0 0 0 0 0 0 0 0 0.25 0"/>
<feBlend mode="normal" in2="shape" result="effect1_innerShadow_50_80"/>
</filter>
<linearGradient id="paint0_linear_50_80" x1="569" y1="-118.5" x2="590.5" y2="695.5" gradientUnits="userSpaceOnUse">
<stop stop-color="#EEFFB1"/>
<stop offset="1" stop-color="#C8FF00"/>
</linearGradient>
<linearGradient id="paint1_linear_50_80" x1="550.734" y1="25.6415" x2="545.234" y2="314.555" gradientUnits="userSpaceOnUse">
<stop stop-color="#F2FFC5"/>
<stop offset="1" stop-color="#8CFF00"/>
</linearGradient>
</defs>
</svg>
